# xmcd
#
# Track frame offsets:
#	150
#	23880
#	39526
#	58717
#	78863
#	98409
#	114455
#	128652
#	147926
#	168184
#	190809
#	203470
#	219972
#	237543
#	252245
#
# Disc length: 3589 seconds
#
# Revision: 0
# Processed by: cddbd v1.4PL0 Copyright (c) Steve Scherf et al.
# Submitted via: dBpowerAMP V4.0
#
DISCID=bf0e030f
DTITLE=Edmon e Alexandre Dantas - Black Hits Acústico
DYEAR=2002
DGENRE=Soul
TTITLE0=Your Song
TTITLE1=September
TTITLE2=Easy
TTITLE3=What a Fool Believes
TTITLE4=Superstition
TTITLE5=Let`s Groove
TTITLE6=Got To Be There
TTITLE7=After The Love Has Gone
TTITLE8=Let`s Get It On
TTITLE9=Happy Song (Tonite)
TTITLE10=Never Can Say Goodbye
TTITLE11=The Second Time Around
TTITLE12=Harvest For The World (Prelude)
TTITLE13=You Are The Sunshine Of My Life
TTITLE14=Neither One Of Us (Wants To Be The First To Say Goodbye)
EXTD=
EXTT0=
EXTT1=
EXTT2=
EXTT3=
EXTT4=
EXTT5=
EXTT6=
EXTT7=
EXTT8=
EXTT9=
EXTT10=
EXTT11=
EXTT12=
EXTT13=
EXTT14=
PLAYORDER=
